<svg xmlns="http://www.w3.org/2000/svg" width="39" height="39" viewBox="0 0 39 39" fill="none">
  <path d="M29.3418 28.0871C29.3415 28.8323 28.4414 29.8077 27.6963 29.8078H25.3535V34.9289C25.3534 36.2327 24.3908 37.2821 23.209 37.2824C22.0269 37.2824 21.0773 36.2329 21.0771 34.9289V29.8078H17.6504V34.9289C17.6503 36.2329 16.7005 37.2824 15.5186 37.2824C14.3365 37.2824 13.3868 36.2329 13.3867 34.9289V29.8078H11.0303C10.2853 29.8074 9.38509 28.8321 9.38477 28.0871V13.0656H29.3418V28.0871ZM6.10059 12.76C7.27882 12.7601 8.23422 13.8136 8.23438 15.1135V24.0256C8.23438 25.3256 7.27892 26.38 6.10059 26.3801C4.92216 26.3801 3.9668 25.3257 3.9668 24.0256V15.1135C3.96695 13.8135 4.92225 12.76 6.10059 12.76ZM32.6338 12.76C33.812 12.7601 34.7674 13.8136 34.7676 15.1135V24.0256C34.7676 25.3256 33.8121 26.38 32.6338 26.3801C31.4554 26.3801 30.5 25.3257 30.5 24.0256V15.1135C30.5002 13.8135 31.4555 12.76 32.6338 12.76ZM25.4453 0.882034C25.4496 0.875957 25.5508 0.733499 25.7002 0.819534C25.8488 0.905406 25.7763 1.05694 25.7725 1.06465L24.0723 4.02071C27.1665 5.53865 29.2637 8.51075 29.2637 11.9201H9.46387C9.46387 8.51069 11.561 5.53862 14.6553 4.02071L12.9561 1.06465C12.954 1.06045 12.8806 0.906106 13.0322 0.819534C13.1833 0.733316 13.2789 0.876984 13.2822 0.882034L15.0088 3.86348C16.323 3.27855 17.8008 2.9485 19.3633 2.94844C20.9259 2.94844 22.4042 3.27847 23.7188 3.86348L25.4453 0.882034ZM14.6553 6.79024C14.1367 6.79044 13.7139 7.21304 13.7139 7.73164C13.7139 8.25026 14.1367 8.66016 14.6553 8.66035C15.174 8.66035 15.5977 8.25038 15.5977 7.73164C15.5976 7.21293 15.174 6.79024 14.6553 6.79024ZM24.0723 6.79024C23.5535 6.79024 23.1299 7.21292 23.1299 7.73164C23.1299 8.25039 23.5535 8.66035 24.0723 8.66035C24.5909 8.6602 25.0137 8.25028 25.0137 7.73164C25.0136 7.21303 24.5908 6.7904 24.0723 6.79024Z" fill="#0F3866"/>
</svg>