<svg xmlns="http://www.w3.org/2000/svg" width="39" height="39" viewBox="0 0 39 39" fill="none">
  <path d="M33.7371 28.4902C33.1984 29.7349 32.5607 30.8806 31.8218 31.9339C30.8147 33.3698 29.99 34.3638 29.3545 34.9157C28.3694 35.8217 27.3138 36.2857 26.1835 36.3121C25.3721 36.3121 24.3936 36.0812 23.2545 35.6128C22.1116 35.1466 21.0614 34.9157 20.1011 34.9157C19.0939 34.9157 18.0138 35.1466 16.8584 35.6128C15.7013 36.0812 14.7692 36.3253 14.0565 36.3495C12.9726 36.3957 11.8922 35.9185 10.8138 34.9157C10.1255 34.3154 9.2646 33.2863 8.23327 31.8283C7.12673 30.2714 6.217 28.466 5.5043 26.4078C4.74103 24.1846 4.3584 22.0317 4.3584 19.9475C4.3584 17.5601 4.87429 15.5009 5.9076 13.7754C6.71969 12.3893 7.80007 11.296 9.15223 10.4933C10.5044 9.6907 11.9654 9.28168 13.5388 9.25551C14.3997 9.25551 15.5287 9.52181 16.9317 10.0452C18.3307 10.5703 19.229 10.8366 19.6228 10.8366C19.9173 10.8366 20.9152 10.5252 22.6069 9.90444C24.2066 9.32874 25.5568 9.09037 26.6629 9.18427C29.6602 9.42616 31.912 10.6077 33.4095 12.7363C30.7289 14.3605 29.4029 16.6354 29.4293 19.5537C29.4535 21.8268 30.2781 23.7184 31.8988 25.2203C32.6332 25.9174 33.4535 26.4561 34.3661 26.8388C34.1681 27.4127 33.9592 27.9625 33.7371 28.4902ZM26.863 1.44024C26.863 3.2219 26.2121 4.88543 24.9147 6.42517C23.349 8.25563 21.4552 9.31335 19.4016 9.14644C19.3754 8.9327 19.3602 8.70774 19.3602 8.47135C19.3602 6.76096 20.1048 4.93051 21.4271 3.43386C22.0872 2.67608 22.9268 2.046 23.945 1.54337C24.9609 1.04825 25.9219 0.774429 26.8257 0.727539C26.852 0.965719 26.863 1.20394 26.863 1.44024Z" fill="#0F3866"/>
</svg>