<svg xmlns="http://www.w3.org/2000/svg" width="46" height="47" viewBox="0 0 46 47" fill="none">
  <path d="M35.0752 34.0351C35.0752 34.9371 33.9851 36.1178 33.083 36.1181H30.2471V42.3173C30.2471 43.8959 29.0813 45.1668 27.6504 45.1669C26.2194 45.1669 25.0693 43.896 25.0693 42.3173V36.1181H20.9219V42.3173C20.9219 43.896 19.7718 45.1669 18.3408 45.1669C16.91 45.1667 15.7607 43.8958 15.7607 42.3173V36.1181H12.9092C12.0071 36.1181 10.916 34.9372 10.916 34.0351V15.8515H35.0752V34.0351ZM6.94043 15.4814C8.3669 15.4814 9.52341 16.7572 9.52344 18.331V29.1191C9.52344 30.6929 8.36692 31.9686 6.94043 31.9687C5.51391 31.9687 4.35742 30.6929 4.35742 29.1191V18.331C4.35745 16.7572 5.51393 15.4814 6.94043 15.4814ZM39.0596 15.4814C40.486 15.4814 41.6425 16.7572 41.6426 18.331V29.1191C41.6426 30.6929 40.4861 31.9686 39.0596 31.9687C37.633 31.9687 36.4766 30.6929 36.4766 29.1191V18.331C36.4766 16.7572 37.6331 15.4814 39.0596 15.4814ZM15.332 1.02726C15.518 0.921317 15.6348 1.10343 15.6348 1.10343L17.7246 4.71281C19.3156 4.00471 21.1045 3.60441 22.9961 3.60441C24.8876 3.60443 26.6764 4.00465 28.2676 4.71281L30.3574 1.10343C30.3574 1.10343 30.4812 0.921783 30.666 1.02823C30.8458 1.13207 30.7587 1.31441 30.7539 1.32413L28.6953 4.90226C32.4412 6.73973 34.9805 10.3375 34.9805 14.4648H11.0117C11.0117 10.3374 13.551 6.73967 17.2969 4.90226L15.2393 1.32413C15.2363 1.31802 15.1487 1.13173 15.332 1.02726ZM17.2969 8.2548C16.669 8.2548 16.1574 8.76665 16.1572 9.39445C16.1572 10.0224 16.6689 10.5185 17.2969 10.5185C17.9247 10.5184 18.4365 10.0223 18.4365 9.39445C18.4363 8.76672 17.9246 8.25489 17.2969 8.2548ZM28.6953 8.2548C28.0675 8.25485 27.5559 8.76668 27.5557 9.39445C27.5557 10.0224 28.0674 10.5184 28.6953 10.5185C29.3233 10.5185 29.835 10.0224 29.835 9.39445C29.8348 8.76666 29.3231 8.2548 28.6953 8.2548Z" fill="#0F3866"/>
</svg>