<svg xmlns="http://www.w3.org/2000/svg" width="46" height="47" viewBox="0 0 46 47" fill="none">
  <path d="M40.3958 34.5235C39.7436 36.0302 38.9716 37.417 38.0772 38.6921C36.858 40.4304 35.8598 41.6336 35.0905 42.3017C33.8979 43.3984 32.6202 43.9601 31.2519 43.9921C30.2697 43.9921 29.0851 43.7126 27.7062 43.1456C26.3228 42.5812 25.0515 42.3017 23.889 42.3017C22.6698 42.3017 21.3622 42.5812 19.9637 43.1456C18.5629 43.7126 17.4345 44.008 16.5718 44.0373C15.2597 44.0932 13.9519 43.5156 12.6465 42.3017C11.8133 41.575 10.7711 40.3292 9.52266 38.5643C8.18317 36.6797 7.08192 34.4942 6.21918 32.0026C5.29521 29.3114 4.83203 26.7053 4.83203 24.1823C4.83203 21.2922 5.45653 18.7996 6.70738 16.7107C7.69044 15.0329 8.99826 13.7094 10.6351 12.7378C12.2719 11.7662 14.0405 11.271 15.9452 11.2394C16.9873 11.2394 18.354 11.5617 20.0523 12.1953C21.7458 12.8309 22.8332 13.1533 23.31 13.1533C23.6664 13.1533 24.8744 12.7764 26.9223 12.0249C28.8589 11.328 30.4933 11.0394 31.8323 11.1531C35.4605 11.4459 38.1863 12.8762 39.9991 15.453C36.7542 17.4191 35.1491 20.1729 35.181 23.7056C35.2103 26.4572 36.2085 28.747 38.1704 30.5652C39.0595 31.409 40.0524 32.0612 41.1571 32.5244C40.9175 33.2191 40.6646 33.8846 40.3958 34.5235ZM32.0745 1.77876C32.0745 3.9355 31.2866 5.94925 29.716 7.81315C27.8207 10.029 25.5282 11.3094 23.0422 11.1073C23.0105 10.8486 22.9922 10.5763 22.9922 10.2901C22.9922 8.21963 23.8935 6.00382 25.4941 4.19209C26.2933 3.27478 27.3096 2.51205 28.5421 1.90361C29.7719 1.30424 30.9352 0.972777 32.0292 0.916016C32.0612 1.20434 32.0745 1.49271 32.0745 1.77876Z" fill="#0F3866"/>
</svg>