<svg width="136" height="136" viewBox="0 0 136 136" fill="none" xmlns="http://www.w3.org/2000/svg">
<mask id="path-1-inside-1_9797_11525" fill="white">
<rect x="36" y="39.2109" width="64" height="70" rx="4"/>
</mask>
<rect x="36" y="39.2109" width="64" height="70" rx="4" stroke="#0F3866" stroke-width="10" mask="url(#path-1-inside-1_9797_11525)"/>
<mask id="path-2-inside-2_9797_11525" fill="white">
<rect x="52" y="33" width="32" height="16" rx="4"/>
</mask>
<rect x="52" y="33" width="32" height="16" rx="4" fill="#F9F9F9" stroke="#0F3866" stroke-width="10" mask="url(#path-2-inside-2_9797_11525)"/>
<path d="M54.456 62.8V71.936H59.384V74H51.976V62.8H54.456ZM64.3268 74.112C63.5481 74.112 62.8494 73.9467 62.2308 73.616C61.6121 73.2853 61.1268 72.8107 60.7747 72.192C60.4334 71.5733 60.2628 70.8427 60.2628 70C60.2628 69.1573 60.4388 68.432 60.7908 67.824C61.1534 67.2053 61.6441 66.7307 62.2628 66.4C62.8921 66.0587 63.5908 65.888 64.3588 65.888C65.1481 65.888 65.8521 66.0587 66.4708 66.4C67.1001 66.7307 67.5961 67.2053 67.9588 67.824C68.3214 68.432 68.5028 69.152 68.5028 69.984C68.5028 70.8373 68.3161 71.5733 67.9427 72.192C67.5801 72.8107 67.0788 73.2853 66.4388 73.616C65.8094 73.9467 65.1054 74.112 64.3268 74.112ZM64.3268 72C64.6041 72 64.8708 71.9253 65.1268 71.776C65.3828 71.6267 65.5854 71.408 65.7348 71.12C65.8948 70.8213 65.9748 70.448 65.9748 70C65.9748 69.552 65.8948 69.184 65.7348 68.896C65.5854 68.5973 65.3881 68.3733 65.1428 68.224C64.8974 68.0747 64.6361 68 64.3588 68C64.0601 68 63.7934 68.0747 63.5588 68.224C63.3241 68.3733 63.1321 68.5973 62.9828 68.896C62.8441 69.184 62.7748 69.552 62.7748 70C62.7748 70.448 62.8441 70.8213 62.9828 71.12C63.1214 71.408 63.3081 71.6267 63.5428 71.776C63.7774 71.9253 64.0388 72 64.3268 72ZM75.5276 66H77.6396V72.848C77.6396 73.7547 77.4156 74.528 76.9676 75.168C76.5196 75.8187 75.8743 76.32 75.0316 76.672C74.189 77.024 73.1596 77.2 71.9436 77.2L71.6076 75.264C72.813 75.2533 73.7303 75.0507 74.3596 74.656C74.989 74.272 75.3036 73.712 75.3036 72.976V72.944L75.6396 72.752C75.405 73.1147 75.069 73.4347 74.6316 73.712C74.1943 73.9787 73.6716 74.112 73.0636 74.112C72.381 74.112 71.773 73.9467 71.2396 73.616C70.717 73.2747 70.3063 72.7947 70.0076 72.176C69.709 71.5573 69.5596 70.832 69.5596 70C69.5596 69.1573 69.709 68.432 70.0076 67.824C70.3063 67.2053 70.717 66.7307 71.2396 66.4C71.773 66.0587 72.381 65.888 73.0636 65.888C73.405 65.888 73.725 65.9413 74.0236 66.048C74.3223 66.144 74.589 66.2773 74.8236 66.448C75.0583 66.608 75.245 66.7947 75.3836 67.008L75.5276 66ZM72.0716 70C72.0716 70.5867 72.221 71.0613 72.5196 71.424C72.8183 71.7867 73.2076 71.968 73.6876 71.968C73.9756 71.968 74.2423 71.888 74.4876 71.728C74.733 71.568 74.9303 71.344 75.0796 71.056C75.229 70.7573 75.3036 70.4053 75.3036 70C75.3036 69.5733 75.229 69.216 75.0796 68.928C74.9303 68.64 74.733 68.4213 74.4876 68.272C74.2423 68.1227 73.981 68.048 73.7036 68.048C73.213 68.048 72.8183 68.2293 72.5196 68.592C72.221 68.944 72.0716 69.4133 72.0716 70ZM81.1716 71.376C81.225 71.5787 81.3103 71.744 81.4276 71.872C81.5556 71.9893 81.705 72.0747 81.8756 72.128C82.0463 72.1813 82.2223 72.208 82.4036 72.208C82.7343 72.208 82.9903 72.1493 83.1716 72.032C83.353 71.9147 83.4436 71.7653 83.4436 71.584C83.4436 71.4027 83.3743 71.2693 83.2356 71.184C83.1076 71.088 82.937 71.0133 82.7236 70.96C82.5103 70.896 82.2863 70.8373 82.0516 70.784C81.785 70.72 81.4863 70.6453 81.1556 70.56C80.825 70.464 80.5103 70.336 80.2116 70.176C79.913 70.0053 79.6676 69.7813 79.4756 69.504C79.2836 69.216 79.1876 68.8587 79.1876 68.432C79.1876 67.9413 79.321 67.504 79.5876 67.12C79.8543 66.736 80.233 66.4373 80.7236 66.224C81.2143 66 81.7956 65.888 82.4676 65.888C83.2996 65.888 83.977 66.0587 84.4996 66.4C85.0223 66.7413 85.3903 67.2213 85.6036 67.84L83.5716 68.352C83.5183 68.2133 83.4383 68.1067 83.3316 68.032C83.225 67.9467 83.0916 67.888 82.9316 67.856C82.7823 67.8133 82.633 67.792 82.4836 67.792C82.2063 67.792 81.9876 67.8453 81.8276 67.952C81.6676 68.0587 81.5876 68.192 81.5876 68.352C81.5876 68.4587 81.6196 68.5493 81.6836 68.624C81.7583 68.6987 81.8543 68.7573 81.9716 68.8C82.0996 68.8427 82.2436 68.88 82.4036 68.912C82.5743 68.944 82.7556 68.9867 82.9476 69.04C83.2676 69.1147 83.593 69.2053 83.9236 69.312C84.265 69.4187 84.5796 69.5627 84.8676 69.744C85.1663 69.9147 85.401 70.1493 85.5716 70.448C85.753 70.736 85.849 71.1093 85.8596 71.568C85.8596 72.0373 85.7263 72.4693 85.4596 72.864C85.193 73.248 84.8036 73.552 84.2916 73.776C83.7796 74 83.1556 74.112 82.4196 74.112C81.5343 74.112 80.793 73.9307 80.1956 73.568C79.5983 73.2053 79.2196 72.6453 79.0596 71.888L81.1716 71.376Z" fill="#0F3866"/>
<circle cx="95.9414" cy="94.6094" r="20" fill="#1384FF"/>
<path d="M88.5332 87.2031L103.352 102.023" stroke="white" stroke-width="4" stroke-linecap="round" stroke-linejoin="round"/>
<path d="M103.35 87.2031L88.5312 102.023" stroke="white" stroke-width="4" stroke-linecap="round" stroke-linejoin="round"/>
</svg>
