<svg xmlns="http://www.w3.org/2000/svg" width="137" height="136" viewBox="0 0 137 136" fill="none">
  <path d="M68.2483 82.1244V75.4297" stroke="#0F3866" stroke-width="5" stroke-linecap="round" stroke-linejoin="round"/>
  <path d="M57.4457 93.3125H38.2209" stroke="#0F3866" stroke-width="5" stroke-linecap="round" stroke-linejoin="round"/>
  <path d="M79.0549 93.3125H98.2797" stroke="#0F3866" stroke-width="5" stroke-linecap="round" stroke-linejoin="round"/>
  <path d="M83.343 92.5161C83.343 100.852 76.5849 107.61 68.2488 107.61C59.9126 107.61 53.1545 100.852 53.1545 92.5161C53.1545 84.1799 59.9126 77.4219 68.2488 77.4219C76.5849 77.4219 83.343 84.1799 83.343 92.5161Z" fill="#1384FF"/>
  <path d="M68.2489 92.5159C68.2489 92.5159 71.0668 96.5689 74.1195 96.5689C76.0648 96.5689 77.6418 94.7543 77.6418 92.5159C77.6418 90.2775 76.0648 88.4629 74.1195 88.4629C71.0668 88.4629 68.2489 92.5159 68.2489 92.5159Z" stroke="white" stroke-width="3.6" stroke-linejoin="round"/>
  <path d="M68.2487 92.5159C68.2487 92.5159 65.4308 96.5689 62.3781 96.5689C60.4327 96.5689 58.8557 94.7543 58.8557 92.5159C58.8557 90.2775 60.4327 88.4629 62.3781 88.4629C65.4308 88.4629 68.2487 92.5159 68.2487 92.5159Z" stroke="white" stroke-width="3.6" stroke-linejoin="round"/>
  <path d="M89.7893 51.8516C89.7893 63.7473 80.1459 73.3906 68.2502 73.3906C56.3546 73.3906 46.7112 63.7473 46.7112 51.8516M89.7893 51.8516C89.7893 39.9559 80.1459 30.3125 68.2502 30.3125C56.3546 30.3125 46.7112 39.9559 46.7112 51.8516M89.7893 51.8516H46.7112" stroke="#0F3866" stroke-width="5" stroke-linecap="round" stroke-linejoin="round"/>
  <path d="M76.5319 51.8516C76.5319 63.7473 72.8229 73.3906 68.2476 73.3906C63.6724 73.3906 59.9634 63.7473 59.9634 51.8516C59.9634 39.9559 63.6724 30.3125 68.2476 30.3125C72.8229 30.3125 76.5319 39.9559 76.5319 51.8516Z" stroke="#0F3866" stroke-width="5" stroke-linecap="round" stroke-linejoin="round"/>
  <path d="M89.7893 51.8672H46.7112" stroke="#0F3866" stroke-width="5" stroke-linecap="round" stroke-linejoin="round"/>
</svg>