<svg xmlns="http://www.w3.org/2000/svg" width="137" height="136" viewBox="0 0 137 136" fill="none">
  <mask id="path-1-inside-1_63_138082" fill="white">
    <rect x="42.4094" y="32.873" width="45.0049" height="60" rx="4"/>
  </mask>
  <rect x="42.4094" y="32.873" width="45.0049" height="60" rx="4" stroke="#0F3866" stroke-width="10" mask="url(#path-1-inside-1_63_138082)"/>
  <circle cx="64.9119" cy="81.8125" r="3.5" fill="#0F3866"/>
  <path d="M46.949 74.2559H83.7175" stroke="#0F3866" stroke-width="5" stroke-linecap="round"/>
  <path d="M104.585 82.029C104.24 80.3992 103.228 79.1184 101.94 78.6822C99.6089 77.8906 90.2557 77.8906 90.2557 77.8906C90.2557 77.8906 80.9026 77.8906 78.571 78.6822C77.2834 79.1184 76.2715 80.3992 75.9269 82.029C75.3015 84.9801 75.3015 91.1409 75.3015 91.1409C75.3015 91.1409 75.3015 97.3017 75.9269 100.253C76.2715 101.883 77.2834 103.163 78.571 103.6C80.9026 104.391 90.2557 104.391 90.2557 104.391C90.2557 104.391 99.6089 104.391 101.94 103.6C103.228 103.163 104.24 101.883 104.585 100.253C105.21 97.3017 105.21 91.1409 105.21 91.1409C105.21 91.1409 105.207 84.9801 104.585 82.029Z" fill="#1384FF"/>
  <path d="M86.5326 84.3203L85.8247 84.7873C85.6756 84.8857 85.5533 85.0195 85.4685 85.1768C85.3838 85.334 85.3393 85.5098 85.3391 85.6885V91.317C85.3391 91.4825 85.3923 91.6436 85.4909 91.7766C85.5894 91.9096 85.728 92.0074 85.8864 92.0557L86.5326 92.2537C86.3085 91.9656 86.1952 91.6068 86.2132 91.2423V85.3317C86.1952 84.9672 86.3085 84.6083 86.5326 84.3203Z" fill="white"/>
  <path d="M84.9465 85.3125L84.2386 85.8252C84.1205 85.9107 84.0243 86.023 83.9579 86.1529C83.8915 86.2827 83.8568 86.4265 83.8567 86.5723V90.9083C83.8569 91.0575 83.9039 91.2029 83.9912 91.3239C84.0786 91.4449 84.2017 91.5354 84.3432 91.5826L84.9465 91.7834C84.7231 91.495 84.6098 91.1364 84.6271 90.772V86.3239C84.6097 85.9595 84.7229 85.6008 84.9465 85.3125Z" fill="white"/>
  <path d="M96.6527 90.4605V86.9744C96.6535 86.7593 96.5847 86.5499 96.4566 86.3772C96.3285 86.2045 96.148 86.0779 95.942 86.0162L88.3775 83.7132C88.211 83.6615 88.0345 83.6504 87.8628 83.6808C87.6911 83.7112 87.5291 83.7822 87.3904 83.8879C87.2511 83.997 87.1388 84.137 87.0625 84.2967C86.9862 84.4564 86.9479 84.6317 86.9506 84.8087V91.5158C86.9497 91.7528 87.0255 91.9838 87.1665 92.1742C87.3075 92.3647 87.5062 92.5046 87.7332 92.573L91.1007 93.6003L87.8247 94.89V93.9346C87.8246 93.878 87.8065 93.8229 87.7729 93.7774C87.7393 93.7318 87.692 93.6982 87.6379 93.6815L86.9515 93.4714V97.4787C86.9472 97.773 87.0566 98.0577 87.2569 98.2734C87.36 98.3816 87.4841 98.4678 87.6215 98.5267C87.7589 98.5856 87.9068 98.616 88.0563 98.6161C88.1951 98.6164 88.3327 98.5901 88.4616 98.5386L96.3996 95.4111C96.4747 95.3816 96.5392 95.3302 96.5847 95.2636C96.6301 95.197 96.6545 95.1182 96.6546 95.0375V94.3838L87.9919 91.7353C87.9444 91.721 87.9028 91.6917 87.8733 91.6518C87.8439 91.6119 87.8281 91.5636 87.8284 91.514V91.2338L96.6546 93.9318V93.0184L87.8284 90.3205V89.9469L96.6499 92.644L96.6546 92.629V91.9267C96.6545 91.8704 96.6364 91.8155 96.6027 91.7702C96.5691 91.725 96.5218 91.6918 96.4678 91.6755L87.8275 89.0336V87.0621L93.004 88.6544C93.0143 88.6576 93.0234 88.6641 93.0298 88.6728C93.0362 88.6816 93.0396 88.6921 93.0395 88.703V89.1942C93.0397 89.2409 93.0548 89.2864 93.0827 89.3238C93.1106 89.3613 93.1498 89.3889 93.1945 89.4025L93.9136 89.6229V88.1567C93.9134 88.117 93.9007 88.0785 93.8772 88.0466C93.8537 88.0147 93.8207 87.9911 93.7829 87.9792L87.8275 86.1479V85.75L94.3273 87.756C94.3519 87.7639 94.3733 87.7793 94.3886 87.8001C94.4039 87.8209 94.4122 87.846 94.4123 87.8718V89.7741L95.2864 90.0412V87.2891C95.2863 87.2453 95.2722 87.2028 95.2462 87.1677C95.2201 87.1325 95.1835 87.1067 95.1417 87.0939L87.8303 84.8358V84.7704C87.8303 84.7343 87.8388 84.6986 87.8551 84.6664C87.8714 84.6341 87.895 84.6061 87.924 84.5846C87.9531 84.5631 87.9868 84.5486 88.0224 84.5425C88.058 84.5363 88.0945 84.5386 88.1291 84.5491L95.5526 86.8091C95.6833 86.8501 95.7823 86.8875 95.7823 87.0677V90.1944L96.6527 90.4605ZM92.4455 94.0093L93.1824 94.2344L87.8266 96.344V95.8285L92.4455 94.0093ZM88.1422 97.7243C88.1073 97.7387 88.0692 97.744 88.0317 97.7398C87.9941 97.7355 87.9583 97.7218 87.9274 97.7C87.8959 97.6791 87.8702 97.6506 87.8526 97.6171C87.835 97.5837 87.826 97.5464 87.8266 97.5086V97.2919L94.5253 94.6537L95.3294 94.8993L88.1422 97.7243Z" fill="white"/>
  <path d="M86.2132 93.2437L85.3391 92.9766V96.9353C85.3391 97.0632 85.3711 97.189 85.4321 97.3013C85.4931 97.4137 85.5812 97.5091 85.6884 97.5787L86.5289 98.1279C86.3048 97.8398 86.1914 97.481 86.2095 97.1165L86.2132 93.2437Z" fill="white"/>
  <path d="M84.6271 92.7588L83.8567 92.5234V96.0498C83.8567 96.1496 83.8806 96.248 83.9265 96.3367C83.9723 96.4254 84.0386 96.5019 84.12 96.5597L84.9465 97.1462C84.7228 96.8579 84.6095 96.4992 84.6271 96.1348V92.7588Z" fill="white"/>
</svg>