<svg xmlns="http://www.w3.org/2000/svg" width="137" height="136" viewBox="0 0 137 136" fill="none">
  <circle cx="68.7502" cy="67.6055" r="37.1055" stroke="#0F3866" stroke-width="5"/>
  <path d="M68.7502 30.5C70.3304 30.5 72.0304 31.2185 73.7922 32.9141C75.5662 34.6214 77.2781 37.2123 78.7698 40.6064C81.7502 47.3881 83.6565 56.9317 83.6565 67.6055C83.6565 78.2793 81.7502 87.8229 78.7698 94.6045C77.2781 97.9987 75.5662 100.589 73.7922 102.297C72.0304 103.992 70.3304 104.711 68.7502 104.711C67.1701 104.711 65.4701 103.992 63.7083 102.297C61.9343 100.589 60.2224 97.9987 58.7307 94.6045C55.7503 87.8229 53.844 78.2793 53.844 67.6055C53.844 56.9317 55.7503 47.3881 58.7307 40.6064C60.2224 37.2123 61.9343 34.6214 63.7083 32.9141C65.4701 31.2185 67.1701 30.5 68.7502 30.5Z" stroke="#0F3866" stroke-width="5"/>
  <path d="M32.7502 67.6016H104.75" stroke="#0F3866" stroke-width="5"/>
  <circle cx="93.592" cy="87.6094" r="20" fill="#1384FF"/>
  <path d="M93.5922 87.6111C93.5922 87.6111 96.8089 92.2378 100.294 92.2378C102.514 92.2378 104.315 90.1663 104.315 87.6111C104.315 85.0558 102.514 82.9844 100.294 82.9844C96.8089 82.9844 93.5922 87.6111 93.5922 87.6111Z" stroke="white" stroke-width="3.6" stroke-linejoin="round"/>
  <path d="M93.5919 87.6111C93.5919 87.6111 90.3752 92.2378 86.8903 92.2378C84.6696 92.2378 82.8694 90.1663 82.8694 87.6111C82.8694 85.0558 84.6696 82.9844 86.8903 82.9844C90.3752 82.9844 93.5919 87.6111 93.5919 87.6111Z" stroke="white" stroke-width="3.6" stroke-linejoin="round"/>
</svg>