<svg xmlns="http://www.w3.org/2000/svg" width="137" height="136" viewBox="0 0 137 136" fill="none">
  <circle cx="68.7502" cy="67.6055" r="37.1055" stroke="#0F3866" stroke-width="5"/>
  <path d="M68.7502 30.5C70.3304 30.5 72.0304 31.2185 73.7922 32.9141C75.5662 34.6214 77.2781 37.2123 78.7698 40.6064C81.7502 47.3881 83.6565 56.9317 83.6565 67.6055C83.6565 78.2793 81.7502 87.8229 78.7698 94.6045C77.2781 97.9987 75.5662 100.589 73.7922 102.297C72.0304 103.992 70.3304 104.711 68.7502 104.711C67.1701 104.711 65.4701 103.992 63.7083 102.297C61.9343 100.589 60.2224 97.9987 58.7307 94.6045C55.7503 87.8229 53.844 78.2793 53.844 67.6055C53.844 56.9317 55.7503 47.3881 58.7307 40.6064C60.2224 37.2123 61.9343 34.6214 63.7083 32.9141C65.4701 31.2185 67.1701 30.5 68.7502 30.5Z" stroke="#0F3866" stroke-width="5"/>
  <path d="M32.7502 67.6016H104.75" stroke="#0F3866" stroke-width="5"/>
  <path d="M73.592 73.8678C73.592 73.1042 74.0241 72.4027 74.7228 72.0948C84.778 67.6654 98.8633 67.6694 108.544 72.0881C109.228 72.4002 109.646 73.0933 109.646 73.845V95.6163C109.646 96.5109 109.35 97.3833 108.783 98.0755C104.794 102.949 100.57 106.451 91.6192 109.609C82.8833 106.452 78.8394 103.012 74.5512 98.111C73.9266 97.3972 73.592 96.4764 73.592 95.5278V73.8678Z" fill="#1384FF"/>
  <path d="M83.3967 87.1604L87.7032 92.367L101.878 81.2422" stroke="white" stroke-width="4" stroke-linecap="round" stroke-linejoin="round"/>
</svg>